<svg xmlns="http://www.w3.org/2000/svg" version="1.1" xmlns:xlink="http://www.w3.org/1999/xlink" width="26" height="18"><svg width="26" height="18" viewBox="0 0 26 18" fill="none" xmlns="http://www.w3.org/2000/svg">
<g filter="url(#filter0_d_1_2)">
<path d="M5.60966 8C5.51366 8 5.43366 7.966 5.36966 7.898L4.16966 6.698C4.10166 6.634 4.06766 6.554 4.06766 6.458V0.151999C4.06766 0.0519996 4.11766 0.00199962 4.21766 0.00199962H5.91566C6.01566 0.00199962 6.06566 0.0519996 6.06566 0.151999V6.278C6.06566 6.358 6.10566 6.398 6.18566 6.398H7.16966V0.151999C7.16966 0.0519996 7.21966 0.00199962 7.31966 0.00199962H9.01766C9.11766 0.00199962 9.16766 0.0519996 9.16766 0.151999V7.85C9.16766 7.95 9.11766 8 9.01766 8H5.60966ZM10.7147 8C10.6147 8 10.5647 7.95 10.5647 7.85V2.288C10.5647 2.236 10.5847 2.176 10.6247 2.108L12.0467 0.0919995C12.0907 0.0319996 12.1547 0.00199962 12.2387 0.00199962H14.2247C14.3127 0.00199962 14.3767 0.0319996 14.4167 0.0919995L15.8447 2.108C15.8847 2.164 15.9047 2.224 15.9047 2.288V7.85C15.9047 7.95 15.8547 8 15.7547 8H14.0567C13.9567 8 13.9067 7.95 13.9067 7.85V5.3H12.5687V7.85C12.5687 7.95 12.5187 8 12.4187 8H10.7147ZM13.2347 4.01C13.6027 4.01 13.8507 3.93 13.9787 3.77C14.1107 3.606 14.1767 3.296 14.1767 2.84C14.1767 2.384 14.1107 2.076 13.9787 1.916C13.8507 1.752 13.6027 1.67 13.2347 1.67C12.8707 1.67 12.6227 1.752 12.4907 1.916C12.3627 2.076 12.2987 2.384 12.2987 2.84C12.2987 3.296 12.3627 3.606 12.4907 3.77C12.6227 3.93 12.8707 4.01 13.2347 4.01ZM19.5778 8C19.4858 8 19.4058 7.974 19.3378 7.922L18.3598 7.028L17.3698 5.738C17.3258 5.682 17.2978 5.648 17.2858 5.636C17.2738 5.62 17.2678 5.584 17.2678 5.528V2.468C17.2678 2.412 17.2738 2.376 17.2858 2.36C17.3018 2.344 17.3298 2.31 17.3698 2.258L18.2878 1.07L19.3378 0.0799997C19.3818 0.0439994 19.4158 0.0219994 19.4398 0.0139995C19.4678 0.00599957 19.5138 0.00199962 19.5778 0.00199962H21.0598C21.1598 0.00199962 21.2098 0.0519996 21.2098 0.151999V1.112C21.2098 1.144 21.2058 1.178 21.1978 1.214C21.1938 1.246 21.1738 1.274 21.1378 1.298L20.0098 2.072L19.2718 3.02V4.982L20.0218 5.93L21.1378 6.698C21.1698 6.718 21.1898 6.742 21.1978 6.77C21.2058 6.798 21.2098 6.828 21.2098 6.86V7.85C21.2098 7.95 21.1598 8 21.0598 8H19.5778ZM19.7218 9.938C19.6218 9.938 19.5718 9.896 19.5718 9.812V9.608C19.5718 9.528 19.6218 9.488 19.7218 9.488H20.3998V9.002H19.8718C19.7718 9.002 19.7218 8.952 19.7218 8.852V8.462L20.0278 8H20.8378L20.5318 8.462H20.9218C21.0218 8.462 21.0718 8.512 21.0718 8.612V9.56C21.0718 9.632 21.0438 9.696 20.9878 9.752L20.8678 9.872C20.8398 9.9 20.8098 9.918 20.7778 9.926C20.7458 9.934 20.7138 9.938 20.6818 9.938H19.7218Z" fill="url(#paint0_linear_1_2)"></path>
</g>
<defs>
<filter id="SvgjsFilter1003" x="0.0676563" y="0.0019989" width="25.1422" height="17.936" filterUnits="userSpaceOnUse" color-interpolation-filters="sRGB">
<feFlood flood-opacity="0" result="BackgroundImageFix"></feFlood>
<feColorMatrix in="SourceAlpha" type="matrix" values="0 0 0 0 0 0 0 0 0 0 0 0 0 0 0 0 0 0 127 0" result="hardAlpha"></feColorMatrix>
<feOffset dy="4"></feOffset>
<feGaussianBlur stdDeviation="2"></feGaussianBlur>
<feComposite in2="hardAlpha" operator="out"></feComposite>
<feColorMatrix type="matrix" values="0 0 0 0 0 0 0 0 0 0 0 0 0 0 0 0 0 0 0.25 0"></feColorMatrix>
<feBlend mode="normal" in2="BackgroundImageFix" result="effect1_dropShadow_1_2"></feBlend>
<feBlend mode="normal" in="SourceGraphic" in2="effect1_dropShadow_1_2" result="shape"></feBlend>
</filter>
<linearGradient id="SvgjsLinearGradient1002" x1="3" y1="4" x2="21" y2="4" gradientUnits="userSpaceOnUse">
<stop offset="0.173077" stop-color="#FF67D4"></stop>
<stop offset="0.327655" stop-color="#FB0ADF"></stop>
<stop offset="0.629897" stop-color="#720DED"></stop>
<stop offset="0.859506" stop-color="#0E06FB"></stop>
</linearGradient>
</defs>
</svg><style>@media (prefers-color-scheme: light) { :root { filter: none; } }
@media (prefers-color-scheme: dark) { :root { filter: none; } }
</style></svg>